<svg xmlns="http://www.w3.org/2000/svg" viewBox="0 0 24 24">
  <!-- Sun -->
  <g class="sun">
    <circle cx="12" cy="12" r="4"/>
    <line x1="12" y1="3" x2="12" y2="5"/>
    <line x1="12" y1="19" x2="12" y2="21"/>
    <line x1="3" y1="12" x2="5" y2="12"/>
    <line x1="19" y1="12" x2="21" y2="12"/>
    <line x1="5.6" y1="5.6" x2="7" y2="7"/>
    <line x1="17" y1="17" x2="18.4" y2="18.4"/>
    <line x1="17" y1="7" x2="18.4" y2="5.6"/>
    <line x1="5.6" y1="18.4" x2="7" y2="17"/>
  </g>
  <!-- Moon -->
  <g class="moon">
    <path d="M12 3a9 9 0 1 0 9 9c0-.46-.04-.92-.1-1.36a5.389 5.389 0 0 1-4.4 2.26 5.403 5.403 0 0 1-3.14-9.8c-.44-.06-.9-.1-1.36-.1z"/>
  </g>
</svg> 